<?xml version="1.0" standalone="no"?>
<!DOCTYPE svg PUBLIC "-//W3C//DTD SVG 20010904//EN"
 "http://www.w3.org/TR/2001/REC-SVG-20010904/DTD/svg10.dtd">
<svg version="1.0" xmlns="http://www.w3.org/2000/svg"
 width="400.000000pt" height="400.000000pt" viewBox="0 0 400.000000 400.000000"
 preserveAspectRatio="xMidYMid meet">

<g transform="translate(0.000000,400.000000) scale(0.100000,-0.100000)"
fill="#000000" stroke="none">
<path d="M0 2000 l0 -2000 2000 0 2000 0 0 2000 0 2000 -2000 0 -2000 0 0
-2000z m1710 675 l0 -75 -55 0 -55 0 0 -260 0 -260 55 0 55 0 0 -80 0 -80
-210 0 -211 0 3 78 3 77 58 3 57 3 0 259 0 260 -60 0 -60 0 0 75 0 75 210 0
210 0 0 -75z m690 -228 c0 -358 -4 -384 -79 -458 -102 -103 -299 -108 -426
-11 -27 21 -51 44 -52 52 -1 8 22 42 52 75 l54 59 28 -26 c65 -62 145 -74 195
-29 l33 29 3 306 3 306 94 0 95 0 0 -303z m-1528 -137 c54 -5 100 -10 103 -10
3 0 5 -134 5 -297 l1 -298 -43 -162 c-24 -90 -47 -163 -51 -163 -12 0 -437
371 -437 381 0 5 63 135 140 289 128 256 142 280 163 275 12 -2 66 -9 119 -15z
m1038 -985 l0 -65 -370 0 -370 0 0 65 0 65 370 0 370 0 0 -65z"/>
</g>
</svg>
