<?xml version="1.0" standalone="no"?>
<!DOCTYPE svg PUBLIC "-//W3C//DTD SVG 20010904//EN"
 "http://www.w3.org/TR/2001/REC-SVG-20010904/DTD/svg10.dtd">
<svg version="1.0" xmlns="http://www.w3.org/2000/svg"
 width="160.000000pt" height="160.000000pt" viewBox="0 0 160.000000 160.000000"
 preserveAspectRatio="xMidYMid meet">

<g transform="translate(0.000000,160.000000) scale(0.100000,-0.100000)"
fill="#000000" stroke="none">
<path d="M310 1295 c0 0 0 -222 0 -493 l-1 -493 488 1 c267 0 488 1 489 3 6 5
8 966 3 971 -5 5 -567 11 -979 11z m345 -155 c43 -27 65 -66 65 -117 0 -87
-61 -140 -169 -150 l-60 -6 -3 -56 -3 -56 -42 -3 -43 -3 0 212 0 212 110 -6
c89 -5 117 -10 145 -27z m410 11 c62 -28 68 -41 39 -78 l-25 -32 -32 19 c-20
12 -50 20 -79 20 -38 0 -52 -5 -77 -30 -58 -58 -49 -152 19 -198 41 -27 95
-24 140 8 l27 19 29 -30 29 -31 -30 -24 c-70 -56 -184 -59 -258 -8 -137 96
-112 311 43 373 41 16 131 12 175 -8z m-295 -691 l0 -30 -185 0 -185 0 0 30 0
30 185 0 185 0 0 -30z"/>
<path d="M490 1020 l0 -60 50 0 c62 0 95 27 85 68 -9 38 -32 52 -87 52 l-48 0
0 -60z"/>
</g>
</svg>
